<svg width="512" height="512" viewBox="0 0 512 512" fill="none" xmlns="http://www.w3.org/2000/svg">
<path d="M359.472 0H152.528C68.4235 0 0 68.4235 0 152.528V359.472C0 443.576 68.4235 512 152.528 512H359.472C443.576 512 512 443.576 512 359.472V152.528C511.999 68.4235 443.576 0 359.472 0ZM460.493 359.472C460.493 415.264 415.264 460.493 359.472 460.493H152.528C96.736 460.493 51.5072 415.264 51.5072 359.472V152.528C51.5072 96.7351 96.736 51.5072 152.528 51.5072H359.472C415.264 51.5072 460.493 96.7351 460.493 152.528V359.472Z" fill="url(#paint0_linear_159_15)"/>
<path d="M255.999 123.58C182.981 123.58 123.577 182.984 123.577 256.001C123.577 329.017 182.981 388.422 255.999 388.422C329.016 388.422 388.42 329.018 388.42 256.001C388.42 182.983 329.016 123.58 255.999 123.58ZM255.999 336.916C211.311 336.916 175.084 300.69 175.084 256.002C175.084 211.313 211.311 175.087 255.999 175.087C300.687 175.087 336.913 211.313 336.913 256.002C336.913 300.689 300.686 336.916 255.999 336.916Z" fill="url(#paint1_linear_159_15)"/>
<path d="M388.68 156.302C406.205 156.302 420.411 142.096 420.411 124.571C420.411 107.047 406.205 92.8401 388.68 92.8401C371.156 92.8401 356.949 107.047 356.949 124.571C356.949 142.096 371.156 156.302 388.68 156.302Z" fill="url(#paint2_linear_159_15)"/>
<defs>
<linearGradient id="paint0_linear_159_15" x1="256" y1="510.51" x2="256" y2="3.97679" gradientUnits="userSpaceOnUse">
<stop/>
</linearGradient>
<linearGradient id="paint1_linear_159_15" x1="255.999" y1="510.511" x2="255.999" y2="3.97838" gradientUnits="userSpaceOnUse">
<stop/>
</linearGradient>
<linearGradient id="paint2_linear_159_15" x1="388.68" y1="510.508" x2="388.68" y2="3.97508" gradientUnits="userSpaceOnUse">
<stop/>
</linearGradient>
</defs>
</svg>
